<?xml version="1.0" encoding="UTF-8"?>
<svg xmlns="http://www.w3.org/2000/svg" xmlns:xlink="http://www.w3.org/1999/xlink" width="26px" height="26px" viewBox="0 0 26 26" version="1.1">
<g id="surface1">
<path style=" stroke:none;fill-rule:nonzero;fill:rgb(3.529412%,61.176471%,92.54902%);fill-opacity:1;" d="M 11.679688 7.476562 L 14.09375 7.476562 L 14.09375 9.667969 L 11.679688 9.667969 Z M 11.679688 7.476562 "/>
<path style=" stroke:none;fill-rule:nonzero;fill:rgb(3.529412%,61.176471%,92.54902%);fill-opacity:1;" d="M 11.679688 10.109375 L 14.09375 10.109375 L 14.09375 12.277344 L 11.679688 12.277344 Z M 11.679688 10.109375 "/>
<path style=" stroke:none;fill-rule:nonzero;fill:rgb(3.529412%,61.176471%,92.54902%);fill-opacity:1;" d="M 8.828125 7.476562 L 11.242188 7.476562 L 11.242188 9.667969 L 8.828125 9.667969 Z M 8.828125 7.476562 "/>
<path style=" stroke:none;fill-rule:nonzero;fill:rgb(3.529412%,61.176471%,92.54902%);fill-opacity:1;" d="M 14.535156 10.109375 L 16.945312 10.109375 L 16.945312 12.277344 L 14.535156 12.277344 Z M 14.535156 10.109375 "/>
<path style=" stroke:none;fill-rule:nonzero;fill:rgb(3.529412%,61.176471%,92.54902%);fill-opacity:1;" d="M 11.679688 4.824219 L 14.09375 4.824219 L 14.09375 7.039062 L 11.679688 7.039062 Z M 11.679688 4.824219 "/>
<path style=" stroke:none;fill-rule:nonzero;fill:rgb(3.529412%,61.176471%,92.54902%);fill-opacity:1;" d="M 5.980469 7.476562 L 8.390625 7.476562 L 8.390625 9.667969 L 5.980469 9.667969 Z M 5.980469 7.476562 "/>
<path style=" stroke:none;fill-rule:nonzero;fill:rgb(3.529412%,61.176471%,92.54902%);fill-opacity:1;" d="M 8.828125 10.109375 L 11.242188 10.109375 L 11.242188 12.277344 L 8.828125 12.277344 Z M 8.828125 10.109375 "/>
<path style=" stroke:none;fill-rule:nonzero;fill:rgb(3.529412%,61.176471%,92.54902%);fill-opacity:1;" d="M 24.195312 11.125 C 23.667969 10.773438 22.457031 10.644531 21.527344 10.820312 C 21.40625 9.945312 20.917969 9.179688 20.027344 8.496094 L 19.515625 8.15625 L 19.175781 8.667969 C 18.503906 9.679688 18.320312 11.351562 19.039062 12.453125 C 18.722656 12.625 18.097656 12.859375 17.273438 12.84375 L 1.410156 12.84375 C 1.09375 14.699219 1.621094 17.109375 3.015625 18.761719 C 4.371094 20.363281 6.398438 21.175781 9.050781 21.175781 C 14.796875 21.175781 19.046875 18.53125 21.039062 13.722656 C 21.820312 13.738281 23.503906 13.726562 24.371094 12.074219 C 24.425781 11.984375 24.609375 11.59375 24.679688 11.449219 Z M 24.195312 11.125 "/>
<path style=" stroke:none;fill-rule:nonzero;fill:rgb(3.529412%,61.176471%,92.54902%);fill-opacity:1;" d="M 5.542969 10.109375 L 3.132812 10.109375 L 3.132812 12.277344 L 5.542969 12.277344 Z M 5.542969 10.109375 "/>
<path style=" stroke:none;fill-rule:nonzero;fill:rgb(3.529412%,61.176471%,92.54902%);fill-opacity:1;" d="M 5.980469 10.109375 L 8.390625 10.109375 L 8.390625 12.277344 L 5.980469 12.277344 Z M 5.980469 10.109375 "/>
</g>
</svg>
