<?xml version="1.0" encoding="UTF-8"?>
<svg xmlns="http://www.w3.org/2000/svg" xmlns:xlink="http://www.w3.org/1999/xlink" width="80px" height="23px" viewBox="0 0 79 53" version="1.1">
<g id="surface1">
<path style="fill:none;stroke-width:5;stroke-linecap:round;stroke-linejoin:round;stroke:rgb(0%,60%,0%);stroke-opacity:1;stroke-miterlimit:4;" d="M 14.051399 32.727464 L 14.051399 13.660334 L 33.113458 32.727464 L 33.113458 13.660334 " transform="matrix(0.528086,0,0,0.531428,3.017153,14.162387)"/>
<path style=" stroke:none;fill-rule:nonzero;fill:rgb(0%,60%,0%);fill-opacity:1;" d="M 26.617188 20.109375 L 26.253906 20.789062 L 23.449219 25.921875 L 23.085938 26.566406 L 23.449219 27.214844 L 26.253906 32.179688 L 26.632812 32.863281 L 33.976562 32.863281 L 34.339844 32.113281 L 36.433594 27.863281 L 37.375 25.9375 L 35.246094 25.9375 L 29.882812 25.953125 C 29.1875 25.945312 28.542969 26.578125 28.542969 27.28125 C 28.542969 27.984375 29.1875 28.621094 29.882812 28.609375 L 33.117188 28.59375 L 32.324219 30.203125 L 28.167969 30.203125 L 26.105469 26.550781 L 28.183594 22.765625 L 32.609375 22.765625 L 33.640625 24.894531 L 36.296875 24.894531 L 34.621094 20.855469 L 34.257812 20.109375 Z M 39.992188 20.089844 C 39.300781 20.101562 38.679688 20.742188 38.6875 21.4375 L 38.6875 24.898438 L 41.328125 24.898438 L 41.328125 21.4375 C 41.335938 20.730469 40.691406 20.082031 39.992188 20.089844 Z M 39.992188 20.089844 "/>
<path style="fill:none;stroke-width:5;stroke-linecap:round;stroke-linejoin:round;stroke:rgb(0%,60%,0%);stroke-opacity:1;stroke-miterlimit:4;" d="M 14.048923 32.730517 L 14.048923 13.663387 L 33.110982 32.730517 L 33.110982 13.663387 " transform="matrix(-0.528086,0,0,0.531428,61.708102,14.188108)"/>
<path style="fill:none;stroke-width:5;stroke-linecap:round;stroke-linejoin:round;stroke:rgb(0%,60%,0%);stroke-opacity:1;stroke-miterlimit:4;" d="M 104.90636 13.374336 L 123.99061 32.390013 " transform="matrix(0.528086,0,0,0.531428,3.073078,14.337812)"/>
<path style="fill:none;stroke-width:5;stroke-linecap:round;stroke-linejoin:round;stroke:rgb(0%,60%,0%);stroke-opacity:1;stroke-miterlimit:4;" d="M 104.912999 13.374336 L 123.997249 32.390013 " transform="matrix(-0.528086,0,0,0.531428,123.965584,14.337812)"/>
<path style=" stroke:none;fill-rule:nonzero;fill:rgb(0%,60%,0%);fill-opacity:1;" d="M 39.992188 32.871094 C 39.300781 32.863281 38.679688 32.222656 38.6875 31.527344 L 38.6875 25.964844 L 41.328125 25.964844 L 41.328125 31.527344 C 41.335938 32.230469 40.691406 32.878906 39.992188 32.871094 Z M 39.992188 32.871094 "/>
</g>
</svg>
