<?xml version="1.0" encoding="UTF-8"?>
<svg xmlns="http://www.w3.org/2000/svg" xmlns:xlink="http://www.w3.org/1999/xlink" width="60px" height="32px" viewBox="0 0 59 32" version="1.1">
<g id="surface1">
<path style="fill:none;stroke-width:5;stroke-linecap:round;stroke-linejoin:round;stroke:rgb(0%,60%,0%);stroke-opacity:1;stroke-miterlimit:4;" d="M 14.051399 32.732076 L 14.051399 13.659193 L 33.118096 32.732076 L 33.118096 13.659193 " transform="matrix(0.389463,0,0,0.395481,2.5939,10.539451)"/>
<path style=" stroke:none;fill-rule:nonzero;fill:rgb(0%,60%,0%);fill-opacity:1;" d="M 20 14.964844 L 19.730469 15.472656 L 17.664062 19.289062 L 17.394531 19.769531 L 17.664062 20.253906 L 19.730469 23.949219 L 20.011719 24.457031 L 25.425781 24.457031 L 25.695312 23.898438 L 27.238281 20.734375 L 27.933594 19.300781 L 26.363281 19.300781 L 22.40625 19.3125 C 21.894531 19.308594 21.417969 19.777344 21.417969 20.300781 C 21.417969 20.824219 21.894531 21.300781 22.40625 21.289062 L 24.792969 21.277344 L 24.207031 22.476562 L 21.144531 22.476562 L 19.621094 19.757812 L 21.152344 16.941406 L 24.417969 16.941406 L 25.179688 18.527344 L 27.136719 18.527344 L 25.902344 15.519531 L 25.632812 14.964844 Z M 29.863281 14.949219 C 29.351562 14.960938 28.894531 15.4375 28.902344 15.953125 L 28.902344 18.527344 L 30.847656 18.527344 L 30.847656 15.953125 C 30.855469 15.425781 30.378906 14.945312 29.863281 14.949219 Z M 29.863281 14.949219 "/>
<path style="fill:none;stroke-width:5;stroke-linecap:round;stroke-linejoin:round;stroke:rgb(0%,60%,0%);stroke-opacity:1;stroke-miterlimit:4;" d="M 14.050678 32.733063 L 14.050678 13.660179 L 33.107346 32.733063 L 33.107346 13.660179 " transform="matrix(-0.389463,0,0,0.395481,45.878475,10.558592)"/>
<path style="fill:none;stroke-width:5;stroke-linecap:round;stroke-linejoin:round;stroke:rgb(0%,60%,0%);stroke-opacity:1;stroke-miterlimit:4;" d="M 104.905981 13.378478 L 123.992738 32.392098 " transform="matrix(0.389463,0,0,0.395481,2.635145,10.67)"/>
<path style="fill:none;stroke-width:5;stroke-linecap:round;stroke-linejoin:round;stroke:rgb(0%,60%,0%);stroke-opacity:1;stroke-miterlimit:4;" d="M 104.912995 13.378478 L 123.999752 32.392098 " transform="matrix(-0.389463,0,0,0.395481,91.793368,10.67)"/>
<path style=" stroke:none;fill-rule:nonzero;fill:rgb(0%,60%,0%);fill-opacity:1;" d="M 29.863281 24.460938 C 29.351562 24.457031 28.894531 23.980469 28.902344 23.460938 L 28.902344 19.324219 L 30.847656 19.324219 L 30.847656 23.460938 C 30.855469 23.984375 30.378906 24.46875 29.863281 24.460938 Z M 29.863281 24.460938 "/>
</g>
</svg>
