<?xml version="1.0" encoding="UTF-8"?>
<svg xmlns="http://www.w3.org/2000/svg" xmlns:xlink="http://www.w3.org/1999/xlink" width="79px" height="42px" viewBox="0 0 78 42" version="1.1">
<defs>
<radialGradient id="radial0" gradientUnits="userSpaceOnUse" cx="147" cy="240" fx="147" fy="240" r="363.0565" gradientTransform="matrix(0.137324,0,0,-0.137705,3.641804,41.422039)">
<stop offset="0" style="stop-color:rgb(100%,100%,100%);stop-opacity:1;"/>
<stop offset="0.5" style="stop-color:rgb(29.803922%,41.960784%,59.215686%);stop-opacity:1;"/>
<stop offset="1" style="stop-color:rgb(0%,0%,0%);stop-opacity:1;"/>
</radialGradient>
</defs>
<g id="surface1">
<path style=" stroke:none;fill-rule:nonzero;fill:url(#radial0);" d="M 76.96875 21.359375 C 76.96875 10.300781 59.96875 1.335938 39 1.335938 C 18.03125 1.335938 1.03125 10.300781 1.03125 21.359375 C 1.03125 32.417969 18.03125 41.378906 39 41.378906 C 59.96875 41.378906 76.96875 32.417969 76.96875 21.359375 Z M 76.96875 21.359375 "/>
<path style=" stroke:none;fill-rule:nonzero;fill:rgb(38.039216%,50.588235%,71.372549%);fill-opacity:1;" d="M 75.488281 21.359375 C 75.488281 11.121094 59.152344 2.824219 39 2.824219 C 18.847656 2.824219 2.511719 11.121094 2.511719 21.359375 C 2.511719 31.59375 18.847656 39.894531 39 39.894531 C 59.152344 39.894531 75.488281 31.59375 75.488281 21.359375 Z M 75.488281 21.359375 "/>
<path style=" stroke:none;fill-rule:nonzero;fill:rgb(100%,100%,100%);fill-opacity:1;" d="M 46.386719 27.347656 L 48.199219 18.011719 C 48.613281 15.90625 48.269531 14.335938 47.183594 13.34375 C 46.140625 12.378906 44.371094 11.910156 41.761719 11.910156 L 38.628906 11.910156 L 39.523438 7.285156 C 39.550781 7.105469 39.507812 6.925781 39.398438 6.789062 C 39.289062 6.652344 39.125 6.570312 38.945312 6.570312 L 34.621094 6.570312 C 34.332031 6.570312 34.097656 6.773438 34.042969 7.050781 L 32.121094 16.964844 C 31.941406 15.851562 31.515625 14.886719 30.828125 14.101562 C 29.566406 12.640625 27.546875 11.910156 24.871094 11.910156 L 16.480469 11.910156 C 16.191406 11.910156 15.957031 12.117188 15.902344 12.394531 L 12.003906 32.457031 C 11.976562 32.636719 12.015625 32.816406 12.125 32.953125 C 12.234375 33.089844 12.398438 33.171875 12.578125 33.171875 L 16.945312 33.171875 C 17.234375 33.171875 17.46875 32.964844 17.523438 32.691406 L 18.46875 27.832031 L 21.710938 27.832031 C 23.414062 27.832031 24.84375 27.652344 25.96875 27.28125 C 27.109375 26.90625 28.164062 26.273438 29.085938 25.40625 C 29.839844 24.71875 30.457031 23.945312 30.925781 23.105469 L 30.144531 27.113281 C 30.113281 27.292969 30.15625 27.472656 30.265625 27.609375 C 30.375 27.746094 30.539062 27.832031 30.71875 27.832031 L 35.046875 27.832031 C 35.332031 27.832031 35.566406 27.625 35.621094 27.347656 L 37.75 16.332031 L 40.714844 16.332031 C 41.980469 16.332031 42.351562 16.578125 42.445312 16.691406 C 42.542969 16.785156 42.734375 17.144531 42.515625 18.230469 L 40.828125 27.128906 C 40.800781 27.308594 40.839844 27.484375 40.949219 27.625 C 41.058594 27.761719 41.226562 27.84375 41.402344 27.84375 L 45.796875 27.84375 C 46.085938 27.832031 46.332031 27.636719 46.386719 27.347656 Z M 26.339844 19.636719 C 26.0625 21.042969 25.554688 22.03125 24.8125 22.609375 C 24.058594 23.191406 22.863281 23.480469 21.242188 23.480469 L 19.308594 23.480469 L 20.707031 16.261719 L 23.207031 16.261719 C 25.046875 16.261719 25.789062 16.664062 26.078125 16.992188 C 26.488281 17.445312 26.585938 18.355469 26.339844 19.636719 Z M 26.339844 19.636719 "/>
<path style=" stroke:none;fill-rule:nonzero;fill:rgb(100%,100%,100%);fill-opacity:1;" d="M 64.886719 14.101562 C 63.621094 12.640625 61.605469 11.910156 58.925781 11.910156 L 50.535156 11.910156 C 50.246094 11.910156 50.011719 12.117188 49.957031 12.394531 L 46.070312 32.472656 C 46.042969 32.648438 46.085938 32.828125 46.195312 32.964844 C 46.304688 33.105469 46.46875 33.1875 46.648438 33.1875 L 51.015625 33.1875 C 51.304688 33.1875 51.539062 32.980469 51.59375 32.703125 L 52.539062 27.84375 L 55.78125 27.84375 C 57.484375 27.84375 58.910156 27.664062 60.039062 27.292969 C 61.179688 26.921875 62.234375 26.289062 63.15625 25.421875 C 63.925781 24.703125 64.570312 23.90625 65.050781 23.039062 C 65.53125 22.171875 65.875 21.207031 66.082031 20.171875 C 66.5625 17.613281 66.164062 15.574219 64.886719 14.101562 Z M 60.367188 19.636719 C 60.09375 21.042969 59.585938 22.03125 58.84375 22.609375 C 58.089844 23.191406 56.894531 23.480469 55.273438 23.480469 L 53.335938 23.480469 L 54.738281 16.261719 L 57.238281 16.261719 C 59.078125 16.261719 59.816406 16.664062 60.105469 16.992188 C 60.53125 17.445312 60.613281 18.355469 60.367188 19.636719 Z M 60.367188 19.636719 "/>
<path style=" stroke:none;fill-rule:nonzero;fill:rgb(0%,0%,0%);fill-opacity:1;" d="M 23.207031 15.671875 C 24.871094 15.671875 25.96875 15.972656 26.515625 16.59375 C 27.066406 17.214844 27.203125 18.257812 26.914062 19.746094 C 26.613281 21.304688 26.035156 22.40625 25.171875 23.078125 C 24.304688 23.742188 23 24.070312 21.242188 24.070312 L 18.59375 24.070312 L 20.226562 15.671875 Z M 12.59375 32.582031 L 16.960938 32.582031 L 17.988281 27.238281 L 21.726562 27.238281 C 23.371094 27.238281 24.730469 27.058594 25.789062 26.714844 C 26.859375 26.371094 27.820312 25.792969 28.6875 24.964844 C 29.414062 24.292969 30.003906 23.546875 30.457031 22.734375 C 30.910156 21.921875 31.226562 21.027344 31.417969 20.050781 C 31.886719 17.667969 31.53125 15.824219 30.375 14.488281 C 29.222656 13.164062 27.382812 12.488281 24.855469 12.488281 L 16.480469 12.488281 Z M 12.59375 32.582031 "/>
<path style=" stroke:none;fill-rule:nonzero;fill:rgb(0%,0%,0%);fill-opacity:1;" d="M 34.632812 7.175781 L 38.957031 7.175781 L 37.929688 12.515625 L 41.789062 12.515625 C 44.21875 12.515625 45.878906 12.945312 46.800781 13.785156 C 47.71875 14.636719 47.996094 16 47.625 17.902344 L 45.8125 27.238281 L 41.417969 27.238281 L 43.132812 18.355469 C 43.324219 17.351562 43.257812 16.664062 42.914062 16.289062 C 42.570312 15.917969 41.855469 15.738281 40.742188 15.738281 L 37.285156 15.738281 L 35.058594 27.238281 L 30.734375 27.238281 Z M 34.632812 7.175781 "/>
<path style=" stroke:none;fill-rule:nonzero;fill:rgb(0%,0%,0%);fill-opacity:1;" d="M 57.238281 15.671875 C 58.898438 15.671875 59.996094 15.972656 60.546875 16.59375 C 61.09375 17.214844 61.234375 18.257812 60.945312 19.746094 C 60.640625 21.304688 60.066406 22.40625 59.199219 23.078125 C 58.335938 23.742188 57.03125 24.070312 55.273438 24.070312 L 52.621094 24.070312 L 54.257812 15.671875 Z M 46.621094 32.582031 L 50.988281 32.582031 L 52.019531 27.238281 L 55.753906 27.238281 C 57.402344 27.238281 58.761719 27.058594 59.816406 26.714844 C 60.890625 26.371094 61.851562 25.792969 62.714844 24.964844 C 63.445312 24.292969 64.035156 23.546875 64.488281 22.734375 C 64.941406 21.921875 65.257812 21.027344 65.449219 20.050781 C 65.914062 17.667969 65.558594 15.824219 64.40625 14.488281 C 63.25 13.164062 61.410156 12.488281 58.882812 12.488281 L 50.492188 12.488281 Z M 46.621094 32.582031 "/>
</g>
</svg>
