<?xml version="1.0" encoding="UTF-8"?>
<svg xmlns="http://www.w3.org/2000/svg" xmlns:xlink="http://www.w3.org/1999/xlink" width="59px" height="32px" viewBox="0 0 59 32" version="1.1">
<defs>
<radialGradient id="radial0" gradientUnits="userSpaceOnUse" cx="147" cy="240" fx="147" fy="240" r="363.0565" gradientTransform="matrix(0.103873,0,0,-0.104918,2.754698,31.559649)">
<stop offset="0" style="stop-color:rgb(100%,100%,100%);stop-opacity:1;"/>
<stop offset="0.5" style="stop-color:rgb(29.803922%,41.960784%,59.215686%);stop-opacity:1;"/>
<stop offset="1" style="stop-color:rgb(0%,0%,0%);stop-opacity:1;"/>
</radialGradient>
</defs>
<g id="surface1">
<path style=" stroke:none;fill-rule:nonzero;fill:url(#radial0);" d="M 58.222656 16.273438 C 58.222656 7.847656 45.363281 1.019531 29.5 1.019531 C 13.636719 1.019531 0.777344 7.847656 0.777344 16.273438 C 0.777344 24.699219 13.636719 31.527344 29.5 31.527344 C 45.363281 31.527344 58.222656 24.699219 58.222656 16.273438 Z M 58.222656 16.273438 "/>
<path style=" stroke:none;fill-rule:nonzero;fill:rgb(38.039216%,50.588235%,71.372549%);fill-opacity:1;" d="M 57.097656 16.273438 C 57.097656 8.472656 44.742188 2.152344 29.5 2.152344 C 14.257812 2.152344 1.902344 8.472656 1.902344 16.273438 C 1.902344 24.070312 14.257812 30.394531 29.5 30.394531 C 44.742188 30.394531 57.097656 24.070312 57.097656 16.273438 Z M 57.097656 16.273438 "/>
<path style=" stroke:none;fill-rule:nonzero;fill:rgb(100%,100%,100%);fill-opacity:1;" d="M 35.089844 20.835938 L 36.460938 13.722656 C 36.769531 12.117188 36.511719 10.921875 35.691406 10.167969 C 34.902344 9.433594 33.5625 9.074219 31.585938 9.074219 L 29.21875 9.074219 L 29.894531 5.550781 C 29.914062 5.414062 29.882812 5.277344 29.800781 5.171875 C 29.71875 5.066406 29.59375 5.003906 29.457031 5.003906 L 26.1875 5.003906 C 25.96875 5.003906 25.792969 5.160156 25.75 5.371094 L 24.296875 12.925781 C 24.160156 12.074219 23.839844 11.339844 23.320312 10.742188 C 22.363281 9.632812 20.835938 9.074219 18.8125 9.074219 L 12.464844 9.074219 C 12.246094 9.074219 12.070312 9.234375 12.027344 9.441406 L 9.078125 24.730469 C 9.058594 24.867188 9.089844 25.003906 9.171875 25.105469 C 9.253906 25.210938 9.378906 25.273438 9.515625 25.273438 L 12.816406 25.273438 C 13.035156 25.273438 13.210938 25.117188 13.253906 24.90625 L 13.972656 21.203125 L 16.421875 21.203125 C 17.710938 21.203125 18.789062 21.066406 19.640625 20.785156 C 20.503906 20.5 21.304688 20.019531 22 19.355469 C 22.570312 18.832031 23.039062 18.246094 23.390625 17.605469 L 22.800781 20.660156 C 22.78125 20.792969 22.8125 20.929688 22.894531 21.035156 C 22.976562 21.140625 23.101562 21.203125 23.238281 21.203125 L 26.507812 21.203125 C 26.726562 21.203125 26.902344 21.046875 26.945312 20.835938 L 28.554688 12.441406 L 30.796875 12.441406 C 31.753906 12.441406 32.035156 12.632812 32.105469 12.714844 C 32.179688 12.789062 32.324219 13.0625 32.160156 13.890625 L 30.882812 20.667969 C 30.859375 20.804688 30.890625 20.941406 30.976562 21.046875 C 31.058594 21.152344 31.183594 21.214844 31.316406 21.214844 L 34.640625 21.214844 C 34.859375 21.203125 35.046875 21.058594 35.089844 20.835938 Z M 19.921875 14.960938 C 19.714844 16.03125 19.332031 16.785156 18.769531 17.226562 C 18.199219 17.667969 17.292969 17.886719 16.070312 17.886719 L 14.605469 17.886719 L 15.664062 12.390625 L 17.554688 12.390625 C 18.945312 12.390625 19.507812 12.695312 19.726562 12.945312 C 20.039062 13.292969 20.109375 13.984375 19.921875 14.960938 Z M 19.921875 14.960938 "/>
<path style=" stroke:none;fill-rule:nonzero;fill:rgb(100%,100%,100%);fill-opacity:1;" d="M 49.082031 10.742188 C 48.125 9.632812 46.597656 9.074219 44.570312 9.074219 L 38.226562 9.074219 C 38.007812 9.074219 37.832031 9.234375 37.789062 9.441406 L 34.847656 24.738281 C 34.828125 24.875 34.859375 25.011719 34.941406 25.117188 C 35.027344 25.222656 35.152344 25.285156 35.285156 25.285156 L 38.589844 25.285156 C 38.808594 25.285156 38.984375 25.128906 39.023438 24.917969 L 39.742188 21.214844 L 42.191406 21.214844 C 43.480469 21.214844 44.5625 21.078125 45.414062 20.792969 C 46.277344 20.511719 47.074219 20.027344 47.769531 19.367188 C 48.351562 18.824219 48.839844 18.214844 49.203125 17.554688 C 49.566406 16.890625 49.828125 16.15625 49.984375 15.371094 C 50.347656 13.417969 50.046875 11.867188 49.082031 10.742188 Z M 45.664062 14.960938 C 45.453125 16.03125 45.070312 16.785156 44.507812 17.226562 C 43.9375 17.667969 43.035156 17.886719 41.808594 17.886719 L 40.34375 17.886719 L 41.402344 12.390625 L 43.292969 12.390625 C 44.6875 12.390625 45.246094 12.695312 45.464844 12.945312 C 45.789062 13.292969 45.851562 13.984375 45.664062 14.960938 Z M 45.664062 14.960938 "/>
<path style=" stroke:none;fill-rule:nonzero;fill:rgb(0%,0%,0%);fill-opacity:1;" d="M 17.554688 11.941406 C 18.8125 11.941406 19.640625 12.171875 20.058594 12.644531 C 20.472656 13.113281 20.578125 13.914062 20.359375 15.046875 C 20.128906 16.230469 19.695312 17.070312 19.039062 17.585938 C 18.386719 18.085938 17.398438 18.339844 16.070312 18.339844 L 14.0625 18.339844 L 15.300781 11.941406 Z M 9.523438 24.824219 L 12.828125 24.824219 L 13.605469 20.753906 L 16.433594 20.753906 C 17.679688 20.753906 18.707031 20.617188 19.507812 20.355469 C 20.316406 20.09375 21.042969 19.652344 21.699219 19.023438 C 22.25 18.507812 22.695312 17.941406 23.039062 17.320312 C 23.382812 16.703125 23.621094 16.019531 23.765625 15.277344 C 24.121094 13.460938 23.847656 12.054688 22.976562 11.039062 C 22.105469 10.03125 20.710938 9.515625 18.800781 9.515625 L 12.464844 9.515625 Z M 9.523438 24.824219 "/>
<path style=" stroke:none;fill-rule:nonzero;fill:rgb(0%,0%,0%);fill-opacity:1;" d="M 26.195312 5.464844 L 29.46875 5.464844 L 28.691406 9.535156 L 31.609375 9.535156 C 33.445312 9.535156 34.703125 9.863281 35.398438 10.503906 C 36.097656 11.152344 36.304688 12.191406 36.023438 13.640625 L 34.652344 20.753906 L 31.328125 20.753906 L 32.625 13.984375 C 32.773438 13.21875 32.71875 12.695312 32.460938 12.410156 C 32.199219 12.128906 31.660156 11.992188 30.820312 11.992188 L 28.203125 11.992188 L 26.519531 20.753906 L 23.246094 20.753906 Z M 26.195312 5.464844 "/>
<path style=" stroke:none;fill-rule:nonzero;fill:rgb(0%,0%,0%);fill-opacity:1;" d="M 43.292969 11.941406 C 44.550781 11.941406 45.382812 12.171875 45.796875 12.644531 C 46.214844 13.113281 46.316406 13.914062 46.097656 15.046875 C 45.871094 16.230469 45.433594 17.070312 44.78125 17.585938 C 44.125 18.085938 43.136719 18.339844 41.808594 18.339844 L 39.804688 18.339844 L 41.039062 11.941406 Z M 35.265625 24.824219 L 38.566406 24.824219 L 39.347656 20.753906 L 42.171875 20.753906 C 43.417969 20.753906 44.449219 20.617188 45.246094 20.355469 C 46.058594 20.09375 46.785156 19.652344 47.4375 19.023438 C 47.988281 18.507812 48.4375 17.941406 48.777344 17.320312 C 49.121094 16.703125 49.359375 16.019531 49.507812 15.277344 C 49.859375 13.460938 49.589844 12.054688 48.714844 11.039062 C 47.84375 10.03125 46.453125 9.515625 44.539062 9.515625 L 38.195312 9.515625 Z M 35.265625 24.824219 "/>
</g>
</svg>
