<?xml version="1.0" encoding="UTF-8"?>
<svg xmlns="http://www.w3.org/2000/svg" xmlns:xlink="http://www.w3.org/1999/xlink" width="27px" height="15px" viewBox="0 0 27 15" version="1.1">
<defs>
<radialGradient id="radial0" gradientUnits="userSpaceOnUse" cx="147" cy="240" fx="147" fy="240" r="363.0565" gradientTransform="matrix(0.0475352,0,0,-0.0491803,1.260624,14.793585)">
<stop offset="0" style="stop-color:rgb(100%,100%,100%);stop-opacity:1;"/>
<stop offset="0.5" style="stop-color:rgb(29.803922%,41.960784%,59.215686%);stop-opacity:1;"/>
<stop offset="1" style="stop-color:rgb(0%,0%,0%);stop-opacity:1;"/>
</radialGradient>
</defs>
<g id="surface1">
<path style=" stroke:none;fill-rule:nonzero;fill:url(#radial0);" d="M 26.644531 7.628906 C 26.644531 3.679688 20.757812 0.476562 13.5 0.476562 C 6.242188 0.476562 0.355469 3.679688 0.355469 7.628906 C 0.355469 11.578125 6.242188 14.777344 13.5 14.777344 C 20.757812 14.777344 26.644531 11.578125 26.644531 7.628906 Z M 26.644531 7.628906 "/>
<path style=" stroke:none;fill-rule:nonzero;fill:rgb(38.039216%,50.588235%,71.372549%);fill-opacity:1;" d="M 26.128906 7.628906 C 26.128906 3.972656 20.476562 1.007812 13.5 1.007812 C 6.523438 1.007812 0.871094 3.972656 0.871094 7.628906 C 0.871094 11.285156 6.523438 14.246094 13.5 14.246094 C 20.476562 14.246094 26.128906 11.285156 26.128906 7.628906 Z M 26.128906 7.628906 "/>
<path style=" stroke:none;fill-rule:nonzero;fill:rgb(100%,100%,100%);fill-opacity:1;" d="M 16.058594 9.765625 L 16.683594 6.433594 C 16.828125 5.679688 16.707031 5.121094 16.332031 4.765625 C 15.972656 4.421875 15.359375 4.253906 14.457031 4.253906 L 13.371094 4.253906 L 13.679688 2.601562 C 13.691406 2.539062 13.675781 2.472656 13.636719 2.425781 C 13.601562 2.375 13.542969 2.347656 13.480469 2.347656 L 11.984375 2.347656 C 11.882812 2.347656 11.804688 2.417969 11.785156 2.519531 L 11.117188 6.058594 C 11.058594 5.660156 10.910156 5.316406 10.671875 5.035156 C 10.234375 4.515625 9.535156 4.253906 8.609375 4.253906 L 5.703125 4.253906 C 5.605469 4.253906 5.523438 4.328125 5.503906 4.425781 L 4.15625 11.59375 C 4.144531 11.65625 4.160156 11.71875 4.199219 11.769531 C 4.234375 11.816406 4.292969 11.847656 4.355469 11.847656 L 5.867188 11.847656 C 5.964844 11.847656 6.046875 11.773438 6.066406 11.675781 L 6.394531 9.9375 L 7.515625 9.9375 C 8.105469 9.9375 8.597656 9.875 8.988281 9.742188 C 9.382812 9.609375 9.75 9.382812 10.066406 9.074219 C 10.328125 8.828125 10.542969 8.550781 10.703125 8.253906 L 10.433594 9.683594 C 10.425781 9.746094 10.4375 9.8125 10.476562 9.859375 C 10.515625 9.910156 10.570312 9.9375 10.632812 9.9375 L 12.132812 9.9375 C 12.230469 9.9375 12.3125 9.867188 12.332031 9.765625 L 13.066406 5.832031 L 14.09375 5.832031 C 14.53125 5.832031 14.660156 5.921875 14.691406 5.960938 C 14.726562 5.996094 14.792969 6.121094 14.71875 6.511719 L 14.132812 9.6875 C 14.121094 9.753906 14.136719 9.816406 14.175781 9.867188 C 14.214844 9.914062 14.269531 9.945312 14.332031 9.945312 L 15.851562 9.945312 C 15.953125 9.9375 16.039062 9.871094 16.058594 9.765625 Z M 9.117188 7.011719 C 9.023438 7.515625 8.847656 7.867188 8.589844 8.074219 C 8.328125 8.28125 7.914062 8.386719 7.355469 8.386719 L 6.683594 8.386719 L 7.167969 5.808594 L 8.035156 5.808594 C 8.671875 5.808594 8.925781 5.949219 9.027344 6.070312 C 9.167969 6.230469 9.203125 6.554688 9.117188 7.011719 Z M 9.117188 7.011719 "/>
<path style=" stroke:none;fill-rule:nonzero;fill:rgb(100%,100%,100%);fill-opacity:1;" d="M 22.460938 5.035156 C 22.023438 4.515625 21.324219 4.253906 20.398438 4.253906 L 17.492188 4.253906 C 17.394531 4.253906 17.3125 4.328125 17.292969 4.425781 L 15.949219 11.597656 C 15.9375 11.660156 15.953125 11.722656 15.992188 11.773438 C 16.027344 11.824219 16.085938 11.851562 16.148438 11.851562 L 17.660156 11.851562 C 17.757812 11.851562 17.839844 11.777344 17.859375 11.679688 L 18.1875 9.945312 L 19.308594 9.945312 C 19.898438 9.945312 20.394531 9.878906 20.78125 9.746094 C 21.175781 9.613281 21.542969 9.386719 21.863281 9.078125 C 22.128906 8.824219 22.351562 8.539062 22.515625 8.226562 C 22.683594 7.917969 22.800781 7.574219 22.875 7.203125 C 23.039062 6.289062 22.902344 5.5625 22.460938 5.035156 Z M 20.894531 7.011719 C 20.800781 7.515625 20.625 7.867188 20.367188 8.074219 C 20.105469 8.28125 19.695312 8.386719 19.132812 8.386719 L 18.460938 8.386719 L 18.949219 5.808594 L 19.8125 5.808594 C 20.449219 5.808594 20.707031 5.949219 20.804688 6.070312 C 20.953125 6.230469 20.980469 6.554688 20.894531 7.011719 Z M 20.894531 7.011719 "/>
<path style=" stroke:none;fill-rule:nonzero;fill:rgb(0%,0%,0%);fill-opacity:1;" d="M 8.035156 5.597656 C 8.609375 5.597656 8.988281 5.703125 9.179688 5.925781 C 9.371094 6.148438 9.417969 6.519531 9.316406 7.050781 C 9.210938 7.609375 9.011719 8 8.714844 8.242188 C 8.414062 8.480469 7.960938 8.597656 7.355469 8.597656 L 6.4375 8.597656 L 7 5.597656 Z M 4.359375 11.636719 L 5.871094 11.636719 L 6.226562 9.726562 L 7.519531 9.726562 C 8.089844 9.726562 8.5625 9.664062 8.925781 9.539062 C 9.296875 9.417969 9.628906 9.210938 9.929688 8.917969 C 10.183594 8.675781 10.386719 8.410156 10.542969 8.121094 C 10.699219 7.828125 10.808594 7.511719 10.875 7.160156 C 11.039062 6.308594 10.914062 5.652344 10.515625 5.171875 C 10.117188 4.703125 9.480469 4.460938 8.605469 4.460938 L 5.703125 4.460938 Z M 4.359375 11.636719 "/>
<path style=" stroke:none;fill-rule:nonzero;fill:rgb(0%,0%,0%);fill-opacity:1;" d="M 11.988281 2.5625 L 13.484375 2.5625 L 13.128906 4.46875 L 14.464844 4.46875 C 15.304688 4.46875 15.882812 4.621094 16.199219 4.921875 C 16.519531 5.226562 16.613281 5.714844 16.484375 6.394531 L 15.859375 9.726562 L 14.335938 9.726562 L 14.929688 6.554688 C 14.996094 6.195312 14.972656 5.949219 14.855469 5.816406 C 14.734375 5.683594 14.488281 5.621094 14.105469 5.621094 L 12.90625 5.621094 L 12.136719 9.726562 L 10.636719 9.726562 Z M 11.988281 2.5625 "/>
<path style=" stroke:none;fill-rule:nonzero;fill:rgb(0%,0%,0%);fill-opacity:1;" d="M 19.8125 5.597656 C 20.386719 5.597656 20.769531 5.703125 20.957031 5.925781 C 21.148438 6.148438 21.195312 6.519531 21.097656 7.050781 C 20.992188 7.609375 20.792969 8 20.492188 8.242188 C 20.191406 8.480469 19.742188 8.597656 19.132812 8.597656 L 18.214844 8.597656 L 18.78125 5.597656 Z M 16.136719 11.636719 L 17.648438 11.636719 L 18.007812 9.726562 L 19.300781 9.726562 C 19.871094 9.726562 20.339844 9.664062 20.707031 9.539062 C 21.078125 9.417969 21.410156 9.210938 21.710938 8.917969 C 21.960938 8.675781 22.164062 8.410156 22.324219 8.121094 C 22.480469 7.828125 22.589844 7.511719 22.65625 7.160156 C 22.816406 6.308594 22.691406 5.652344 22.292969 5.171875 C 21.894531 4.703125 21.257812 4.460938 20.382812 4.460938 L 17.480469 4.460938 Z M 16.136719 11.636719 "/>
</g>
</svg>
