<?xml version="1.0" encoding="UTF-8"?>
<svg xmlns="http://www.w3.org/2000/svg" xmlns:xlink="http://www.w3.org/1999/xlink" width="55px" height="30px" viewBox="0 0 55 30" version="1.1">
<defs>
<radialGradient id="radial0" gradientUnits="userSpaceOnUse" cx="147" cy="240" fx="147" fy="240" r="363.0565" gradientTransform="matrix(0.096831,0,0,-0.0983607,2.567938,29.58717)">
<stop offset="0" style="stop-color:rgb(100%,100%,100%);stop-opacity:1;"/>
<stop offset="0.5" style="stop-color:rgb(29.803922%,41.960784%,59.215686%);stop-opacity:1;"/>
<stop offset="1" style="stop-color:rgb(0%,0%,0%);stop-opacity:1;"/>
</radialGradient>
</defs>
<g id="surface1">
<path style=" stroke:none;fill-rule:nonzero;fill:url(#radial0);" d="M 54.273438 15.253906 C 54.273438 7.355469 42.285156 0.953125 27.5 0.953125 C 12.714844 0.953125 0.726562 7.355469 0.726562 15.253906 C 0.726562 23.15625 12.714844 29.558594 27.5 29.558594 C 42.285156 29.558594 54.273438 23.15625 54.273438 15.253906 Z M 54.273438 15.253906 "/>
<path style=" stroke:none;fill-rule:nonzero;fill:rgb(38.039216%,50.588235%,71.372549%);fill-opacity:1;" d="M 53.226562 15.253906 C 53.226562 7.945312 41.710938 2.015625 27.5 2.015625 C 13.289062 2.015625 1.773438 7.945312 1.773438 15.253906 C 1.773438 22.566406 13.289062 28.496094 27.5 28.496094 C 41.710938 28.496094 53.226562 22.566406 53.226562 15.253906 Z M 53.226562 15.253906 "/>
<path style=" stroke:none;fill-rule:nonzero;fill:rgb(100%,100%,100%);fill-opacity:1;" d="M 32.710938 19.535156 L 33.988281 12.867188 C 34.277344 11.359375 34.035156 10.238281 33.269531 9.53125 C 32.535156 8.84375 31.285156 8.507812 29.445312 8.507812 L 27.238281 8.507812 L 27.867188 5.203125 C 27.886719 5.074219 27.859375 4.949219 27.78125 4.847656 C 27.703125 4.75 27.585938 4.691406 27.460938 4.691406 L 24.410156 4.691406 C 24.207031 4.691406 24.042969 4.839844 24.003906 5.035156 L 22.648438 12.117188 C 22.523438 11.320312 22.222656 10.632812 21.738281 10.070312 C 20.847656 9.03125 19.425781 8.507812 17.535156 8.507812 L 11.621094 8.507812 C 11.417969 8.507812 11.25 8.65625 11.214844 8.851562 L 8.464844 23.183594 C 8.445312 23.3125 8.472656 23.4375 8.550781 23.539062 C 8.628906 23.636719 8.742188 23.695312 8.871094 23.695312 L 11.949219 23.695312 C 12.152344 23.695312 12.316406 23.546875 12.355469 23.351562 L 13.023438 19.878906 L 15.308594 19.878906 C 16.507812 19.878906 17.515625 19.75 18.3125 19.484375 C 19.113281 19.21875 19.859375 18.765625 20.507812 18.148438 C 21.042969 17.65625 21.476562 17.105469 21.804688 16.503906 L 21.253906 19.367188 C 21.234375 19.496094 21.265625 19.621094 21.339844 19.722656 C 21.417969 19.820312 21.535156 19.878906 21.660156 19.878906 L 24.710938 19.878906 C 24.914062 19.878906 25.078125 19.730469 25.117188 19.535156 L 26.617188 11.664062 L 28.710938 11.664062 C 29.601562 11.664062 29.863281 11.84375 29.929688 11.921875 C 30 11.988281 30.132812 12.246094 29.980469 13.023438 L 28.789062 19.378906 C 28.769531 19.503906 28.796875 19.632812 28.875 19.730469 C 28.953125 19.828125 29.070312 19.886719 29.195312 19.886719 L 32.292969 19.886719 C 32.496094 19.878906 32.671875 19.742188 32.710938 19.535156 Z M 18.570312 14.027344 C 18.378906 15.03125 18.019531 15.738281 17.496094 16.152344 C 16.964844 16.5625 16.121094 16.769531 14.980469 16.769531 L 13.613281 16.769531 L 14.601562 11.617188 L 16.363281 11.617188 C 17.660156 11.617188 18.183594 11.902344 18.386719 12.136719 C 18.679688 12.460938 18.746094 13.113281 18.570312 14.027344 Z M 18.570312 14.027344 "/>
<path style=" stroke:none;fill-rule:nonzero;fill:rgb(100%,100%,100%);fill-opacity:1;" d="M 45.753906 10.070312 C 44.863281 9.03125 43.4375 8.507812 41.550781 8.507812 L 35.632812 8.507812 C 35.429688 8.507812 35.265625 8.65625 35.226562 8.851562 L 32.488281 23.195312 C 32.46875 23.320312 32.496094 23.449219 32.574219 23.546875 C 32.652344 23.644531 32.769531 23.703125 32.894531 23.703125 L 35.972656 23.703125 C 36.175781 23.703125 36.339844 23.558594 36.378906 23.359375 L 37.046875 19.886719 L 39.332031 19.886719 C 40.535156 19.886719 41.539062 19.761719 42.335938 19.496094 C 43.136719 19.230469 43.882812 18.777344 44.53125 18.15625 C 45.074219 17.644531 45.53125 17.074219 45.867188 16.457031 C 46.207031 15.835938 46.449219 15.148438 46.59375 14.410156 C 46.933594 12.582031 46.652344 11.125 45.753906 10.070312 Z M 42.566406 14.027344 C 42.375 15.03125 42.015625 15.738281 41.492188 16.152344 C 40.960938 16.5625 40.117188 16.769531 38.972656 16.769531 L 37.609375 16.769531 L 38.597656 11.617188 L 40.359375 11.617188 C 41.65625 11.617188 42.179688 11.902344 42.382812 12.136719 C 42.683594 12.460938 42.742188 13.113281 42.566406 14.027344 Z M 42.566406 14.027344 "/>
<path style=" stroke:none;fill-rule:nonzero;fill:rgb(0%,0%,0%);fill-opacity:1;" d="M 16.363281 11.195312 C 17.535156 11.195312 18.3125 11.410156 18.699219 11.851562 C 19.085938 12.296875 19.183594 13.042969 18.980469 14.105469 C 18.765625 15.214844 18.359375 16.003906 17.75 16.484375 C 17.140625 16.957031 16.21875 17.195312 14.980469 17.195312 L 13.109375 17.195312 L 14.261719 11.195312 Z M 8.878906 23.273438 L 11.957031 23.273438 L 12.683594 19.457031 L 15.320312 19.457031 C 16.480469 19.457031 17.4375 19.328125 18.183594 19.082031 C 18.941406 18.835938 19.617188 18.421875 20.226562 17.832031 C 20.742188 17.351562 21.15625 16.820312 21.476562 16.238281 C 21.796875 15.660156 22.019531 15.019531 22.15625 14.320312 C 22.484375 12.621094 22.230469 11.300781 21.417969 10.347656 C 20.605469 9.402344 19.308594 8.921875 17.527344 8.921875 L 11.621094 8.921875 Z M 8.878906 23.273438 "/>
<path style=" stroke:none;fill-rule:nonzero;fill:rgb(0%,0%,0%);fill-opacity:1;" d="M 24.421875 5.125 L 27.472656 5.125 L 26.746094 8.941406 L 29.464844 8.941406 C 31.179688 8.941406 32.351562 9.246094 33 9.847656 C 33.648438 10.457031 33.84375 11.429688 33.582031 12.785156 L 32.304688 19.457031 L 29.203125 19.457031 L 30.414062 13.113281 C 30.550781 12.394531 30.5 11.902344 30.257812 11.636719 C 30.019531 11.371094 29.515625 11.242188 28.730469 11.242188 L 26.289062 11.242188 L 24.722656 19.457031 L 21.671875 19.457031 Z M 24.421875 5.125 "/>
<path style=" stroke:none;fill-rule:nonzero;fill:rgb(0%,0%,0%);fill-opacity:1;" d="M 40.359375 11.195312 C 41.53125 11.195312 42.304688 11.410156 42.691406 11.851562 C 43.082031 12.296875 43.175781 13.042969 42.972656 14.105469 C 42.761719 15.214844 42.355469 16.003906 41.742188 16.484375 C 41.132812 16.957031 40.214844 17.195312 38.972656 17.195312 L 37.105469 17.195312 L 38.257812 11.195312 Z M 32.875 23.273438 L 35.953125 23.273438 L 36.679688 19.457031 L 39.3125 19.457031 C 40.476562 19.457031 41.433594 19.328125 42.179688 19.082031 C 42.933594 18.835938 43.613281 18.421875 44.222656 17.832031 C 44.734375 17.351562 45.152344 16.820312 45.472656 16.238281 C 45.792969 15.660156 46.015625 15.019531 46.148438 14.320312 C 46.480469 12.621094 46.226562 11.300781 45.414062 10.347656 C 44.601562 9.402344 43.304688 8.921875 41.519531 8.921875 L 35.605469 8.921875 Z M 32.875 23.273438 "/>
</g>
</svg>
