<?xml version="1.0" encoding="UTF-8"?>
<svg xmlns="http://www.w3.org/2000/svg" xmlns:xlink="http://www.w3.org/1999/xlink" width="50px" height="27px" viewBox="0 0 50 27" version="1.1">
<defs>
<radialGradient id="radial0" gradientUnits="userSpaceOnUse" cx="147" cy="240" fx="147" fy="240" r="363.0565" gradientTransform="matrix(0.0880282,0,0,-0.0885246,2.334489,26.628453)">
<stop offset="0" style="stop-color:rgb(100%,100%,100%);stop-opacity:1;"/>
<stop offset="0.5" style="stop-color:rgb(29.803922%,41.960784%,59.215686%);stop-opacity:1;"/>
<stop offset="1" style="stop-color:rgb(0%,0%,0%);stop-opacity:1;"/>
</radialGradient>
</defs>
<g id="surface1">
<path style=" stroke:none;fill-rule:nonzero;fill:url(#radial0);" d="M 49.339844 13.730469 C 49.339844 6.621094 38.441406 0.859375 25 0.859375 C 11.558594 0.859375 0.660156 6.621094 0.660156 13.730469 C 0.660156 20.839844 11.558594 26.601562 25 26.601562 C 38.441406 26.601562 49.339844 20.839844 49.339844 13.730469 Z M 49.339844 13.730469 "/>
<path style=" stroke:none;fill-rule:nonzero;fill:rgb(38.039216%,50.588235%,71.372549%);fill-opacity:1;" d="M 48.390625 13.730469 C 48.390625 7.148438 37.917969 1.816406 25 1.816406 C 12.082031 1.816406 1.609375 7.148438 1.609375 13.730469 C 1.609375 20.3125 12.082031 25.644531 25 25.644531 C 37.917969 25.644531 48.390625 20.3125 48.390625 13.730469 Z M 48.390625 13.730469 "/>
<path style=" stroke:none;fill-rule:nonzero;fill:rgb(100%,100%,100%);fill-opacity:1;" d="M 29.734375 17.582031 L 30.898438 11.578125 C 31.160156 10.222656 30.941406 9.214844 30.246094 8.578125 C 29.578125 7.957031 28.441406 7.65625 26.769531 7.65625 L 24.761719 7.65625 L 25.335938 4.683594 C 25.351562 4.566406 25.324219 4.453125 25.253906 4.363281 C 25.183594 4.277344 25.078125 4.222656 24.964844 4.222656 L 22.191406 4.222656 C 22.007812 4.222656 21.855469 4.355469 21.820312 4.53125 L 20.589844 10.90625 C 20.476562 10.1875 20.203125 9.570312 19.761719 9.066406 C 18.953125 8.125 17.660156 7.65625 15.941406 7.65625 L 10.5625 7.65625 C 10.378906 7.65625 10.230469 7.789062 10.195312 7.96875 L 7.695312 20.867188 C 7.675781 20.980469 7.703125 21.09375 7.773438 21.183594 C 7.84375 21.273438 7.949219 21.324219 8.0625 21.324219 L 10.863281 21.324219 C 11.046875 21.324219 11.195312 21.191406 11.230469 21.015625 L 11.839844 17.890625 L 13.917969 17.890625 C 15.007812 17.890625 15.925781 17.777344 16.644531 17.535156 C 17.375 17.296875 18.054688 16.890625 18.644531 16.332031 C 19.128906 15.890625 19.523438 15.394531 19.824219 14.855469 L 19.320312 17.429688 C 19.304688 17.546875 19.332031 17.660156 19.402344 17.75 C 19.472656 17.835938 19.578125 17.890625 19.691406 17.890625 L 22.464844 17.890625 C 22.648438 17.890625 22.800781 17.757812 22.835938 17.582031 L 24.199219 10.5 L 26.101562 10.5 C 26.910156 10.5 27.148438 10.660156 27.210938 10.730469 C 27.269531 10.792969 27.394531 11.019531 27.253906 11.71875 L 26.171875 17.4375 C 26.152344 17.554688 26.179688 17.667969 26.25 17.757812 C 26.320312 17.847656 26.425781 17.898438 26.539062 17.898438 L 29.355469 17.898438 C 29.542969 17.890625 29.699219 17.765625 29.734375 17.582031 Z M 16.882812 12.625 C 16.707031 13.527344 16.382812 14.164062 15.90625 14.535156 C 15.421875 14.90625 14.65625 15.09375 13.617188 15.09375 L 12.375 15.09375 L 13.273438 10.453125 L 14.875 10.453125 C 16.054688 10.453125 16.53125 10.710938 16.714844 10.925781 C 16.980469 11.214844 17.042969 11.800781 16.882812 12.625 Z M 16.882812 12.625 "/>
<path style=" stroke:none;fill-rule:nonzero;fill:rgb(100%,100%,100%);fill-opacity:1;" d="M 41.59375 9.066406 C 40.785156 8.125 39.488281 7.65625 37.773438 7.65625 L 32.394531 7.65625 C 32.210938 7.65625 32.058594 7.789062 32.023438 7.96875 L 29.535156 20.875 C 29.515625 20.988281 29.542969 21.105469 29.613281 21.191406 C 29.683594 21.28125 29.789062 21.335938 29.902344 21.335938 L 32.703125 21.335938 C 32.886719 21.335938 33.035156 21.203125 33.070312 21.023438 L 33.679688 17.898438 L 35.757812 17.898438 C 36.847656 17.898438 37.765625 17.785156 38.484375 17.546875 C 39.214844 17.304688 39.894531 16.898438 40.484375 16.339844 C 40.976562 15.882812 41.390625 15.367188 41.699219 14.808594 C 42.007812 14.253906 42.226562 13.632812 42.359375 12.96875 C 42.667969 11.324219 42.410156 10.011719 41.59375 9.066406 Z M 38.695312 12.625 C 38.519531 13.527344 38.195312 14.164062 37.71875 14.535156 C 37.234375 14.90625 36.46875 15.09375 35.429688 15.09375 L 34.191406 15.09375 L 35.089844 10.453125 L 36.691406 10.453125 C 37.871094 10.453125 38.34375 10.710938 38.53125 10.925781 C 38.804688 11.214844 38.855469 11.800781 38.695312 12.625 Z M 38.695312 12.625 "/>
<path style=" stroke:none;fill-rule:nonzero;fill:rgb(0%,0%,0%);fill-opacity:1;" d="M 14.875 10.074219 C 15.941406 10.074219 16.644531 10.269531 17 10.667969 C 17.351562 11.066406 17.4375 11.738281 17.253906 12.695312 C 17.058594 13.695312 16.691406 14.402344 16.136719 14.835938 C 15.582031 15.261719 14.746094 15.472656 13.617188 15.472656 L 11.917969 15.472656 L 12.964844 10.074219 Z M 8.070312 20.945312 L 10.871094 20.945312 L 11.53125 17.511719 L 13.925781 17.511719 C 14.980469 17.511719 15.855469 17.394531 16.53125 17.171875 C 17.21875 16.953125 17.835938 16.582031 18.390625 16.050781 C 18.855469 15.617188 19.234375 15.136719 19.523438 14.617188 C 19.816406 14.09375 20.019531 13.519531 20.140625 12.890625 C 20.441406 11.359375 20.210938 10.171875 19.472656 9.3125 C 18.730469 8.464844 17.554688 8.027344 15.933594 8.027344 L 10.5625 8.027344 Z M 8.070312 20.945312 "/>
<path style=" stroke:none;fill-rule:nonzero;fill:rgb(0%,0%,0%);fill-opacity:1;" d="M 22.199219 4.613281 L 24.972656 4.613281 L 24.3125 8.046875 L 26.785156 8.046875 C 28.34375 8.046875 29.410156 8.320312 30 8.859375 C 30.589844 9.410156 30.765625 10.285156 30.527344 11.507812 L 29.367188 17.511719 L 26.550781 17.511719 L 27.648438 11.800781 C 27.773438 11.152344 27.730469 10.710938 27.507812 10.472656 C 27.289062 10.234375 26.832031 10.117188 26.117188 10.117188 L 23.898438 10.117188 L 22.472656 17.511719 L 19.699219 17.511719 Z M 22.199219 4.613281 "/>
<path style=" stroke:none;fill-rule:nonzero;fill:rgb(0%,0%,0%);fill-opacity:1;" d="M 36.691406 10.074219 C 37.753906 10.074219 38.460938 10.269531 38.8125 10.667969 C 39.164062 11.066406 39.25 11.738281 39.066406 12.695312 C 38.875 13.695312 38.503906 14.402344 37.949219 14.835938 C 37.394531 15.261719 36.558594 15.472656 35.429688 15.472656 L 33.730469 15.472656 L 34.78125 10.074219 Z M 29.886719 20.945312 L 32.683594 20.945312 L 33.34375 17.511719 L 35.738281 17.511719 C 36.796875 17.511719 37.667969 17.394531 38.34375 17.171875 C 39.03125 16.953125 39.648438 16.582031 40.203125 16.050781 C 40.667969 15.617188 41.046875 15.136719 41.339844 14.617188 C 41.628906 14.09375 41.832031 13.519531 41.953125 12.890625 C 42.253906 11.359375 42.023438 10.171875 41.285156 9.3125 C 40.546875 8.464844 39.367188 8.027344 37.746094 8.027344 L 32.367188 8.027344 Z M 29.886719 20.945312 "/>
</g>
</svg>
