<?xml version="1.0" encoding="UTF-8"?>
<svg xmlns="http://www.w3.org/2000/svg" xmlns:xlink="http://www.w3.org/1999/xlink" width="40px" height="22px" viewBox="0 0 40 22" version="1.1">
<defs>
<radialGradient id="radial0" gradientUnits="userSpaceOnUse" cx="147" cy="240" fx="147" fy="240" r="363.0565" gradientTransform="matrix(0.0704226,0,0,-0.0721312,1.867591,21.697258)">
<stop offset="0" style="stop-color:rgb(100%,100%,100%);stop-opacity:1;"/>
<stop offset="0.5" style="stop-color:rgb(29.803922%,41.960784%,59.215686%);stop-opacity:1;"/>
<stop offset="1" style="stop-color:rgb(0%,0%,0%);stop-opacity:1;"/>
</radialGradient>
</defs>
<g id="surface1">
<path style=" stroke:none;fill-rule:nonzero;fill:url(#radial0);" d="M 39.472656 11.1875 C 39.472656 5.394531 30.753906 0.699219 20 0.699219 C 9.246094 0.699219 0.527344 5.394531 0.527344 11.1875 C 0.527344 16.980469 9.246094 21.675781 20 21.675781 C 30.753906 21.675781 39.472656 16.980469 39.472656 11.1875 Z M 39.472656 11.1875 "/>
<path style=" stroke:none;fill-rule:nonzero;fill:rgb(38.039216%,50.588235%,71.372549%);fill-opacity:1;" d="M 38.710938 11.1875 C 38.710938 5.824219 30.335938 1.480469 20 1.480469 C 9.664062 1.480469 1.289062 5.824219 1.289062 11.1875 C 1.289062 16.550781 9.664062 20.894531 20 20.894531 C 30.335938 20.894531 38.710938 16.550781 38.710938 11.1875 Z M 38.710938 11.1875 "/>
<path style=" stroke:none;fill-rule:nonzero;fill:rgb(100%,100%,100%);fill-opacity:1;" d="M 23.789062 14.324219 L 24.71875 9.433594 C 24.929688 8.328125 24.753906 7.507812 24.195312 6.988281 C 23.664062 6.484375 22.753906 6.238281 21.414062 6.238281 L 19.808594 6.238281 L 20.269531 3.816406 C 20.28125 3.722656 20.257812 3.628906 20.203125 3.554688 C 20.148438 3.484375 20.0625 3.441406 19.972656 3.441406 L 17.753906 3.441406 C 17.605469 3.441406 17.484375 3.550781 17.457031 3.691406 L 16.472656 8.886719 C 16.382812 8.300781 16.164062 7.796875 15.808594 7.386719 C 15.164062 6.621094 14.128906 6.238281 12.753906 6.238281 L 8.449219 6.238281 C 8.304688 6.238281 8.183594 6.347656 8.15625 6.492188 L 6.15625 17.003906 C 6.140625 17.09375 6.164062 17.1875 6.21875 17.261719 C 6.273438 17.332031 6.359375 17.375 6.449219 17.375 L 8.691406 17.375 C 8.835938 17.375 8.957031 17.265625 8.984375 17.125 L 9.472656 14.578125 L 11.132812 14.578125 C 12.007812 14.578125 12.742188 14.484375 13.316406 14.289062 C 13.898438 14.09375 14.445312 13.761719 14.914062 13.308594 C 15.304688 12.949219 15.617188 12.542969 15.859375 12.105469 L 15.457031 14.203125 C 15.445312 14.296875 15.464844 14.390625 15.523438 14.464844 C 15.578125 14.53125 15.664062 14.578125 15.753906 14.578125 L 17.972656 14.578125 C 18.117188 14.578125 18.242188 14.46875 18.269531 14.324219 L 19.359375 8.554688 L 20.882812 8.554688 C 21.527344 8.554688 21.71875 8.6875 21.769531 8.742188 C 21.816406 8.792969 21.914062 8.980469 21.804688 9.546875 L 20.9375 14.207031 C 20.921875 14.304688 20.945312 14.394531 21 14.46875 C 21.054688 14.542969 21.140625 14.582031 21.230469 14.582031 L 23.484375 14.582031 C 23.632812 14.578125 23.757812 14.476562 23.789062 14.324219 Z M 13.507812 10.285156 C 13.367188 11.023438 13.105469 11.542969 12.726562 11.84375 C 12.335938 12.144531 11.726562 12.296875 10.894531 12.296875 L 9.898438 12.296875 L 10.617188 8.515625 L 11.898438 8.515625 C 12.84375 8.515625 13.226562 8.726562 13.371094 8.902344 C 13.585938 9.136719 13.632812 9.617188 13.507812 10.285156 Z M 13.507812 10.285156 "/>
<path style=" stroke:none;fill-rule:nonzero;fill:rgb(100%,100%,100%);fill-opacity:1;" d="M 33.273438 7.386719 C 32.628906 6.621094 31.589844 6.238281 30.21875 6.238281 L 25.914062 6.238281 C 25.769531 6.238281 25.648438 6.347656 25.617188 6.492188 L 23.628906 17.007812 C 23.613281 17.101562 23.632812 17.195312 23.691406 17.265625 C 23.746094 17.339844 23.832031 17.386719 23.921875 17.386719 L 26.164062 17.386719 C 26.308594 17.386719 26.429688 17.277344 26.457031 17.128906 L 26.945312 14.582031 L 28.605469 14.582031 C 29.476562 14.582031 30.210938 14.492188 30.789062 14.296875 C 31.371094 14.101562 31.914062 13.769531 32.386719 13.3125 C 32.78125 12.941406 33.113281 12.519531 33.359375 12.066406 C 33.605469 11.613281 33.78125 11.109375 33.886719 10.566406 C 34.132812 9.226562 33.929688 8.15625 33.273438 7.386719 Z M 30.957031 10.285156 C 30.816406 11.023438 30.554688 11.542969 30.175781 11.84375 C 29.789062 12.144531 29.175781 12.296875 28.34375 12.296875 L 27.351562 12.296875 L 28.070312 8.515625 L 29.351562 8.515625 C 30.296875 8.515625 30.675781 8.726562 30.824219 8.902344 C 31.042969 9.136719 31.085938 9.617188 30.957031 10.285156 Z M 30.957031 10.285156 "/>
<path style=" stroke:none;fill-rule:nonzero;fill:rgb(0%,0%,0%);fill-opacity:1;" d="M 11.898438 8.207031 C 12.753906 8.207031 13.316406 8.367188 13.601562 8.691406 C 13.882812 9.015625 13.949219 9.566406 13.804688 10.34375 C 13.648438 11.160156 13.351562 11.734375 12.910156 12.089844 C 12.464844 12.433594 11.796875 12.605469 10.894531 12.605469 L 9.535156 12.605469 L 10.371094 8.207031 Z M 6.457031 17.066406 L 8.695312 17.066406 L 9.226562 14.269531 L 11.140625 14.269531 C 11.984375 14.269531 12.683594 14.171875 13.226562 13.992188 C 13.773438 13.8125 14.269531 13.511719 14.710938 13.078125 C 15.085938 12.726562 15.386719 12.332031 15.617188 11.910156 C 15.851562 11.484375 16.015625 11.015625 16.113281 10.503906 C 16.351562 9.253906 16.167969 8.289062 15.578125 7.589844 C 14.984375 6.898438 14.042969 6.539062 12.746094 6.539062 L 8.449219 6.539062 Z M 6.457031 17.066406 "/>
<path style=" stroke:none;fill-rule:nonzero;fill:rgb(0%,0%,0%);fill-opacity:1;" d="M 17.757812 3.757812 L 19.976562 3.757812 L 19.449219 6.558594 L 21.429688 6.558594 C 22.675781 6.558594 23.527344 6.78125 24 7.21875 C 24.472656 7.667969 24.613281 8.378906 24.421875 9.375 L 23.492188 14.269531 L 21.242188 14.269531 L 22.117188 9.617188 C 22.21875 9.085938 22.183594 8.726562 22.007812 8.535156 C 21.832031 8.339844 21.464844 8.242188 20.894531 8.242188 L 19.117188 8.242188 L 17.976562 14.269531 L 15.757812 14.269531 Z M 17.757812 3.757812 "/>
<path style=" stroke:none;fill-rule:nonzero;fill:rgb(0%,0%,0%);fill-opacity:1;" d="M 29.351562 8.207031 C 30.203125 8.207031 30.769531 8.367188 31.050781 8.691406 C 31.332031 9.015625 31.398438 9.566406 31.253906 10.34375 C 31.101562 11.160156 30.804688 11.734375 30.359375 12.089844 C 29.914062 12.433594 29.246094 12.605469 28.34375 12.605469 L 26.984375 12.605469 L 27.824219 8.207031 Z M 23.910156 17.066406 L 26.148438 17.066406 L 26.675781 14.269531 L 28.589844 14.269531 C 29.4375 14.269531 30.132812 14.171875 30.675781 13.992188 C 31.226562 13.8125 31.71875 13.511719 32.164062 13.078125 C 32.535156 12.726562 32.835938 12.332031 33.070312 11.910156 C 33.304688 11.484375 33.464844 11.015625 33.5625 10.503906 C 33.804688 9.253906 33.617188 8.289062 33.027344 7.589844 C 32.4375 6.898438 31.492188 6.539062 30.195312 6.539062 L 25.894531 6.539062 Z M 23.910156 17.066406 "/>
</g>
</svg>
